<?xml version="1.0" encoding="UTF-8" standalone="no"?>
<svg
   viewBox="0 0 1066.6667 1066.6667"
   height="1066.6667"
   width="1066.6667"
   xml:space="preserve"
   id="svg2"
   version="1.1"
   xmlns="http://www.w3.org/2000/svg"
   xmlns:svg="http://www.w3.org/2000/svg"
   xmlns:rdf="http://www.w3.org/1999/02/22-rdf-syntax-ns#"
   xmlns:cc="http://creativecommons.org/ns#"
   xmlns:dc="http://purl.org/dc/elements/1.1/"><metadata
     id="metadata8"><rdf:RDF><cc:Work
         rdf:about=""><dc:format>image/svg+xml</dc:format><dc:type
           rdf:resource="http://purl.org/dc/dcmitype/StillImage" /></cc:Work></rdf:RDF></metadata><defs
     id="defs6"><clipPath
       id="clipPath18"
       clipPathUnits="userSpaceOnUse"><path
         id="path16"
         d="M 0,800 H 800 V 0 H 0 Z" /></clipPath></defs><g
     transform="matrix(1.3333333,0,0,-1.3333333,0,1066.6667)"
     id="g13"
     style="fill:#ffffff;fill-opacity:1"><g
       id="g11"
       style="fill:#ffffff;fill-opacity:1"><g
         clip-path="url(#clipPath18)"
         id="g9"
         style="fill:#ffffff;fill-opacity:1"><g
           transform="translate(405.6641,514.7451)"
           id="g6"
           style="fill:#ffffff;fill-opacity:1"><path
             id="path6"
             style="fill:#ffffff;fill-opacity:1;fill-rule:nonzero;stroke:none"
             d="m -293.66406,-262.47461 c 0,117.80664 0,235.613282 0,353.419922 141.972,10e-7 283.9440079,0 425.91601,0 0.0332,-38.473305 0.0646,-76.946614 0.0957,-115.419921 -31.07878,-31.078776 -62.157556,-62.157552 -93.236332,-93.236331 -13.713291,12.27713 -27.429943,24.550498 -41.1445311,36.826174 -21.4759789,-18.505129 -42.9514149,-37.010894 -64.4277349,-55.515624 -41.590282,38.387701 -83.183842,76.771863 -124.775392,115.158202 -18.89648,-24.361328 -37.79297,-48.722656 -56.68945,-73.083984 0,-40.177088 0,-80.354168 0,-120.531248 64.72331,0 129.44661,0 194.169921,0 -3.504194,-16.3722 -7.005899,-32.74492 -10.509766,-49.11719 -76.466145,0 -152.932295,0 -229.398435,0 0,0.5 0,1 0,1.5 z M 40.359375,-40.712891 c 1.400579,0.0065 2.801157,0.07055 4.193359,0.226563 0.870066,0.09816 2.017636,0.254936 2.984746,0.445548 10.500831,1.99818 19.989718,8.726184 25.32129,17.995859 4.896185,8.345618 6.326864,18.6214632 3.961542,27.998046 -0.133535,0.4990511 -0.349752,1.3210572 -0.544071,1.9370641 -1.166281,3.7686179 -2.921438,7.3559419 -5.207882,10.5727019 -0.367473,0.51776 -0.934147,1.284356 -1.418221,1.871018 -4.991268,6.221668 -11.993312,10.808093 -19.724357,12.800857 -0.570843,0.138302 -1.459006,0.360339 -2.165605,0.492671 -8.499451,1.701628 -17.685995,0.38044 -25.360089,-3.871233 C 13.587235,24.957051 6.8287954,16.490183 4.2167969,6.7890625 3.9457617,5.7840546 3.6471636,4.5132719 3.4565954,3.3860449 2.8167551,-0.21151508 2.6953074,-3.9970448 3.1434813,-7.6988096 3.2786589,-8.8408955 3.4677375,-10.022568 3.6928789,-11.03852 c 1.9320666,-9.273673 7.7357571,-17.830483 15.4457931,-23.070855 6.191564,-4.292602 13.693651,-6.587978 21.220703,-6.603516 z" /></g><g
           transform="translate(375.584,285.9111)"
           id="g7"
           style="fill:#ffffff;fill-opacity:1"><path
             id="path7"
             style="fill:#ffffff;fill-opacity:1;fill-rule:evenodd;stroke:none"
             d="M -22.365234,-90.191406 C -15.504355,-58.119696 -8.6408322,-26.04855 -1.78125,6.0234375 24.563151,-20.320964 50.907552,-46.665365 77.251953,-73.009766 43.887997,-79.47644 10.524065,-85.943239 -22.839844,-92.410156 c 0.158203,0.739583 0.316407,1.479166 0.47461,2.21875 z" /></g><g
           transform="translate(389.1899,304.5703)"
           id="g8"
           style="fill:#ffffff;fill-opacity:1"><path
             id="path8"
             style="fill:#ffffff;fill-opacity:1;fill-rule:evenodd;stroke:none"
             d="M 75.259766,-79.5 C 48.759146,-52.999969 22.258432,-26.500031 -4.2421875,0 70.335276,74.576834 144.91277,149.15363 219.49023,223.73047 c 26.85414,-26.85355 53.70837,-53.707 80.5625,-80.56055 C 225.47527,68.593088 150.89778,-5.9837131 76.320312,-80.560547 75.966797,-80.207031 75.613281,-79.853516 75.259766,-79.5 Z" /></g></g></g></g><g
     transform="matrix(1.3333333,0,0,-1.3333333,0,1066.6667)"
     id="g10"
     style="fill:#000000;fill-opacity:1"><g
       id="g12"
       style="fill:#000000;fill-opacity:1"><g
         clip-path="url(#clipPath18)"
         id="g14"
         style="fill:#000000;fill-opacity:1"><g
           transform="translate(405.6641,514.7451)"
           id="g20"
           style="fill:#000000;fill-opacity:1"><path
             id="path22"
             style="fill:#000000;fill-opacity:1;fill-rule:nonzero;stroke:none"
             d="M 0,0 C 1.756,22.316 21.271,38.982 43.586,37.226 65.902,35.47 82.568,15.956 80.813,-6.36 79.056,-28.676 59.542,-45.343 37.226,-43.586 14.91,-41.83 -1.757,-22.316 0,0 m -57.466,-217.857 h -193.46 v 124.558 l 59.323,76.478 125.212,-115.559 64.393,55.488 40.996,-36.691 90.35,90.35 -0.092,111.178 h -419.92 v -348.92 h 223.972 z" /></g><g
           transform="translate(375.584,285.9111)"
           id="g24"
           style="fill:#000000;fill-opacity:1"><path
             id="path26"
             style="fill:#000000;fill-opacity:1;fill-rule:evenodd;stroke:none"
             d="M 0,0 71.138,-71.139 -18.958,-88.601 Z" /></g><g
           transform="translate(389.1899,304.5703)"
           id="g28"
           style="fill:#000000;fill-opacity:1"><path
             id="path30"
             style="fill:#000000;fill-opacity:1;fill-rule:evenodd;stroke:none"
             d="M 0,0 219.49,219.489 295.81,143.169 76.32,-76.319 Z" /></g></g></g></g></svg>
